<svg width="56" height="35" viewBox="0 0 56 35" fill="none" xmlns="http://www.w3.org/2000/svg">
<path d="M25.7601 7.22547C24.9996 7.22547 24.3543 6.96159 23.8266 6.43143C23.2988 5.90127 23.0325 5.25597 23.0325 4.49791C23.0325 3.73986 23.2964 3.09215 23.8266 2.5644C24.3567 2.01265 25.002 1.73438 25.7601 1.73438C26.5205 1.73438 27.1658 2.01025 27.6936 2.5644C28.2453 3.09455 28.5236 3.73986 28.5236 4.49791C28.5236 5.25597 28.2477 5.90367 27.6936 6.43143C27.1658 6.96159 26.5205 7.22547 25.7601 7.22547ZM23.4116 26.5702C22.3057 26.5702 21.4085 26.2248 20.7176 25.5339C20.0507 24.843 19.7148 23.8067 19.7148 22.4249C19.7148 21.8492 19.806 21.1007 19.9907 20.1795L22.3392 9.09181H27.3146L24.8293 20.8368C24.7381 21.1823 24.6902 21.5517 24.6902 21.9427C24.6902 22.4033 24.7933 22.7368 25.002 22.9455C25.2323 23.1302 25.6018 23.2214 26.1079 23.2214C26.7748 23.2214 27.3985 22.9455 27.9743 22.3913C28.55 21.8156 28.965 21.0791 29.2169 20.1795H30.6682C29.8166 22.6672 28.7227 24.3584 27.3865 25.258C26.0479 26.1336 24.7238 26.5702 23.4116 26.5702ZM35.3173 35C34.2114 35 33.2902 34.7121 32.5538 34.1364C31.8173 33.5606 31.4479 32.7306 31.4479 31.6487C31.4479 30.3365 31.978 29.2762 33.036 28.4702C34.0963 27.6881 35.4421 27.0308 37.0781 26.5007L37.4931 24.6703C36.3177 25.9369 34.9359 26.5702 33.3478 26.5702C32.0356 26.5702 30.9417 26.1216 30.0661 25.222C29.1905 24.3248 28.7539 22.9191 28.7539 21.0072C28.7539 19.3039 29.0874 17.5192 29.7567 15.6528C30.4475 13.7649 31.4599 12.1744 32.7961 10.8862C34.1538 9.57399 35.7659 8.91669 37.6323 8.91669C38.5774 8.91669 39.2779 9.07742 39.7385 9.40127C40.1991 9.72272 40.4294 10.1497 40.4294 10.6799V10.8862L40.8084 9.08941H45.7837L42.3629 25.1189C43.4688 24.7495 44.354 24.1977 45.0233 23.4612C45.6926 22.7248 46.2563 21.6309 46.7169 20.1795H48.1682C47.5469 22.2282 46.7049 23.7371 45.647 24.7039C44.5867 25.649 43.3896 26.292 42.0534 26.6374L41.5353 29.1251C41.0747 31.3584 40.2806 32.8913 39.1508 33.719C38.0233 34.573 36.7447 35 35.3173 35ZM35.5932 23.2214C36.1233 23.2214 36.6631 22.9791 37.2172 22.4969C37.7714 22.0147 38.1504 21.3574 38.3567 20.5274L40.1175 12.3399C40.1175 12.0641 40.0024 11.7882 39.7721 11.5099C39.5418 11.21 39.1843 11.0613 38.7022 11.0613C37.781 11.0613 36.951 11.6035 36.2145 12.6854C35.478 13.7457 34.9023 15.0339 34.4873 16.5548C34.0723 18.0517 33.866 19.3759 33.866 20.5274C33.866 21.6789 34.0267 22.4153 34.3506 22.7392C34.6936 23.0582 35.1086 23.2214 35.5932 23.2214ZM34.5209 32.306C34.9119 32.306 35.2933 32.0421 35.6604 31.512C36.0298 30.9818 36.3177 30.2214 36.524 29.233L36.7303 28.2303C34.4729 29.0603 33.3454 30.039 33.3454 31.1665C33.3454 31.4664 33.4486 31.7303 33.6573 31.9606C33.866 32.1909 34.1538 32.306 34.5209 32.306ZM52.4791 7.22547C51.7186 7.22547 51.0733 6.96159 50.5455 6.43143C50.0154 5.90127 49.7515 5.25597 49.7515 4.49791C49.7515 3.73986 50.0154 3.09215 50.5455 2.5644C51.0757 2.01265 51.721 1.73438 52.4791 1.73438C53.2371 1.73438 53.8848 2.01025 54.4126 2.5644C54.9643 3.09455 55.2426 3.73986 55.2426 4.49791C55.2426 5.25597 54.9667 5.90367 54.4126 6.43143C53.8848 6.96159 53.2395 7.22547 52.4791 7.22547ZM50.1305 26.5702C49.0246 26.5702 48.1275 26.2248 47.4366 25.5339C46.7697 24.843 46.4338 23.8067 46.4338 22.4249C46.4338 21.8492 46.525 21.1007 46.7097 20.1795L49.0582 9.09181H54.0336L51.5459 20.8368C51.4547 21.1823 51.4068 21.5517 51.4068 21.9427C51.4068 22.4033 51.5099 22.7368 51.7186 22.9455C51.9489 23.1302 52.3183 23.2214 52.8245 23.2214C53.2395 23.2214 53.6066 23.1518 53.9304 23.015C53.8392 24.1665 53.4242 25.0541 52.6878 25.6754C51.9729 26.2728 51.1213 26.5702 50.1305 26.5702Z" fill="#F43582"/>
<path d="M15.8088 0.215901L15.3338 2.46607C15.1467 2.04387 14.6933 1.19465 13.7505 0.606923C12.8485 0.0455792 11.9777 0 11.1117 0C8.77759 0 6.76011 0.822824 5.05689 2.46607C3.38725 4.07814 2.11823 6.06683 1.25463 8.43215C0.419808 10.7663 0 13.0021 0 15.1323C0 17.5264 0.54695 19.2848 1.64325 20.4099C2.73715 21.5326 4.10932 22.0963 5.75017 22.0963C7.74126 22.0963 10.428 21.3023 11.8986 19.7166C11.7498 20.5394 10.9294 24.9894 9.82351 28.0552C9.57642 28.7365 9.1974 29.6816 8.28821 30.2238C7.47258 30.7108 6.46744 30.7347 6.32831 30.7347C6.1172 30.7371 5.79095 30.7419 5.38554 30.6292C5.09527 30.55 4.46916 30.3773 3.97498 29.7968C3.39925 29.1179 3.39205 28.3334 3.39205 28.1127C3.39205 27.4195 3.59596 26.8581 4.00617 26.4263C4.41878 25.9945 4.94654 25.7786 5.59664 25.7786C5.96367 25.7786 6.30912 25.853 6.63537 26.0065C6.98081 26.1576 7.24949 26.3615 7.4462 26.6206C7.68369 26.3184 7.80123 25.9082 7.80123 25.39C7.80123 24.7183 7.54215 24.1785 7.02399 23.7683C6.52742 23.3581 5.86772 23.1518 5.04489 23.1518C4.24606 23.1518 3.51199 23.3581 2.8403 23.7683C2.16861 24.157 1.64085 24.6991 1.24983 25.39C0.863605 26.0809 0.666895 26.8365 0.666895 27.6594C0.666895 28.6405 0.997944 29.3674 1.15147 29.6984C1.73921 30.9746 3.01782 32.306 4.76422 32.8506C7.46779 33.695 9.81151 32.5507 10.5504 32.1693C12.2824 31.2745 13.2611 29.9791 13.6761 29.4154C14.523 28.2687 14.9644 27.146 15.3674 26.1097C15.7128 25.2197 15.9167 24.524 16.231 23.4253C16.6868 21.83 16.9626 20.6018 17.0346 20.2803C17.5072 18.1597 19.1385 10.5672 21.3167 0.215901H15.8088ZM10.3009 17.4808C10.1066 17.5792 9.42049 17.9198 8.56169 17.9006C8.08191 17.891 7.77724 17.7735 7.67409 17.7303C7.4318 17.6295 7.2087 17.4832 7.0024 17.2937C6.59938 16.8883 6.39788 15.9671 6.39788 14.5254C6.39788 13.0836 6.65696 11.4284 7.17512 9.55483C7.69568 7.6525 8.41535 6.03804 9.33893 4.71145C9.89068 3.91981 10.9726 2.76833 12.4503 2.67957C12.7622 2.66038 13.6474 2.60761 14.3239 3.22653C14.7197 3.59116 14.878 4.03256 14.9428 4.27964C14.2063 7.69568 13.4722 11.1093 12.7358 14.5254C12.6254 14.818 11.865 16.7036 10.3009 17.4808Z" fill="#F43582"/>
</svg>
